<svg id="visual" viewBox="0 0 2560 1440" width="2560" height="1440" xmlns="http://www.w3.org/2000/svg" xmlns:xlink="http://www.w3.org/1999/xlink" version="1.1"><rect x="0" y="0" width="2560" height="1440" fill="#ffffff"></rect><defs><linearGradient id="grad1_0" x1="43.8%" y1="100%" x2="100%" y2="0%"><stop offset="14.444444444444446%" stop-color="#ffffff" stop-opacity="1"></stop><stop offset="85.55555555555554%" stop-color="#ffffff" stop-opacity="1"></stop></linearGradient></defs><defs><linearGradient id="grad2_0" x1="0%" y1="100%" x2="56.3%" y2="0%"><stop offset="14.444444444444446%" stop-color="#ffffff" stop-opacity="1"></stop><stop offset="85.55555555555554%" stop-color="#ffffff" stop-opacity="1"></stop></linearGradient></defs><g transform="translate(2560, 1440)"><path d="M-864 0C-750.6 -63.1 -637.2 -126.2 -602 -195.6C-566.9 -265 -609.9 -340.6 -616.5 -447.9C-623 -555.2 -593 -694 -507.8 -699C-422.7 -703.9 -282.3 -575 -188.5 -580.1C-94.7 -585.3 -47.3 -724.7 0 -864L0 0Z" fill="#ffcc00"></path></g><g transform="translate(0, 0)"><path d="M864 0C781.4 76.8 698.9 153.6 641 208.3C583.1 262.9 549.9 295.5 546.1 396.8C542.3 498.1 567.9 668.1 507.8 699C447.8 729.9 302.2 621.5 203.3 625.8C104.4 630.1 52.2 747 0 864L0 0Z" fill="#ffcc00"></path></g></svg>