<svg id="visual" viewBox="0 0 1920 1080" width="1920" height="1080" xmlns="http://www.w3.org/2000/svg" xmlns:xlink="http://www.w3.org/1999/xlink" version="1.1"><rect x="0" y="0" width="1920" height="1080" fill="#ffffff"></rect><defs><linearGradient id="grad1_0" x1="43.8%" y1="0%" x2="100%" y2="100%"><stop offset="14.444444444444446%" stop-color="#ffffff" stop-opacity="1"></stop><stop offset="85.55555555555554%" stop-color="#ffffff" stop-opacity="1"></stop></linearGradient></defs><defs><linearGradient id="grad2_0" x1="0%" y1="0%" x2="56.3%" y2="100%"><stop offset="14.444444444444446%" stop-color="#ffffff" stop-opacity="1"></stop><stop offset="85.55555555555554%" stop-color="#ffffff" stop-opacity="1"></stop></linearGradient></defs><g transform="translate(1920, 0)"><path d="M0 486C-31.8 422.4 -63.6 358.7 -112.8 347.1C-162 335.6 -228.5 376.1 -264.5 364.1C-300.5 352 -305.8 287.5 -339 246.3C-372.1 205.1 -433.1 187.3 -462.2 150.2C-491.3 113 -488.7 56.5 -486 0L0 0Z" fill="#FBAE3C"></path></g><g transform="translate(0, 1080)"><path d="M0 -486C41.9 -443.7 83.8 -401.5 123.3 -379.5C162.8 -357.5 200 -355.7 252.7 -347.9C305.5 -340 373.9 -326 393.2 -285.7C412.5 -245.3 382.6 -178.7 389.9 -126.7C397.2 -74.7 441.6 -37.4 486 0L0 0Z" fill="#FBAE3C"></path></g></svg>