<svg id="visual" viewBox="0 0 2560 1440" width="2560" height="1440" xmlns="http://www.w3.org/2000/svg" xmlns:xlink="http://www.w3.org/1999/xlink" version="1.1"><rect x="0" y="0" width="2560" height="1440" fill="#121212"></rect><defs><linearGradient id="grad1_0" x1="43.8%" y1="0%" x2="100%" y2="100%"><stop offset="14.444444444444446%" stop-color="#121212" stop-opacity="1"></stop><stop offset="85.55555555555554%" stop-color="#121212" stop-opacity="1"></stop></linearGradient></defs><defs><linearGradient id="grad2_0" x1="0%" y1="0%" x2="56.3%" y2="100%"><stop offset="14.444444444444446%" stop-color="#121212" stop-opacity="1"></stop><stop offset="85.55555555555554%" stop-color="#121212" stop-opacity="1"></stop></linearGradient></defs><g transform="translate(2560, 0)"><path d="M0 864C-63.1 750.6 -126.2 637.2 -195.6 602C-265 566.9 -340.6 609.9 -447.9 616.5C-555.2 623 -694 593 -699 507.8C-703.9 422.7 -575 282.3 -580.1 188.5C-585.3 94.7 -724.7 47.3 -864 0L0 0Z" fill="#ff9900"></path></g><g transform="translate(0, 1440)"><path d="M0 -864C76.8 -781.4 153.6 -698.9 208.3 -641C262.9 -583.1 295.5 -549.9 396.8 -546.1C498.1 -542.3 668.1 -567.9 699 -507.8C729.9 -447.8 621.5 -302.2 625.8 -203.3C630.1 -104.4 747 -52.2 864 0L0 0Z" fill="#ff9900"></path></g></svg>