<svg id="visual" viewBox="0 0 1024 768" width="1024" height="768" xmlns="http://www.w3.org/2000/svg" xmlns:xlink="http://www.w3.org/1999/xlink" version="1.1"><g><g transform="translate(767 277)"><path d="M74.3 -61.1C100.7 -47.8 129.7 -23.9 130.2 0.4C130.6 24.8 102.4 49.5 76 73C49.5 96.4 24.8 118.6 2.2 116.3C-20.3 114.1 -40.7 87.6 -62.4 64.1C-84.1 40.7 -107.2 20.3 -107.6 -0.5C-108.1 -21.3 -85.9 -42.5 -64.2 -55.8C-42.5 -69.1 -21.3 -74.4 1.3 -75.7C23.9 -77 47.8 -74.4 74.3 -61.1Z" fill="#9f5bd7"></path></g><g transform="translate(84 648)"><path d="M82.2 -84.5C96.8 -67.5 92.3 -33.8 93.9 1.6C95.6 37.1 103.4 74.1 88.8 89.3C74.1 104.4 37.1 97.6 3.8 93.8C-29.4 90 -58.9 89.1 -84.6 74C-110.3 58.9 -132.3 29.4 -127.5 4.8C-122.8 -19.9 -91.3 -39.8 -65.6 -56.8C-39.8 -73.8 -19.9 -87.8 6.9 -94.7C33.8 -101.6 67.5 -101.5 82.2 -84.5Z" fill="#9f5bd7"></path></g><g transform="translate(59 205)"><path d="M69.2 -58.2C90.7 -47.8 109.6 -23.9 111.7 2.1C113.8 28.1 99.1 56.3 77.7 75.4C56.3 94.5 28.1 104.6 6 98.5C-16.1 92.5 -32.1 70.3 -56.1 51.2C-80.1 32.1 -112.1 16.1 -113.5 -1.4C-114.8 -18.8 -85.6 -37.6 -61.6 -48.1C-37.6 -58.5 -18.8 -60.5 2.5 -63.1C23.9 -65.6 47.8 -68.7 69.2 -58.2Z" fill="#9f5bd7"></path></g><g transform="translate(924 667)"><path d="M87.8 -87.9C113 -62.6 132 -31.3 131.7 -0.3C131.4 30.8 111.9 61.6 86.7 75C61.6 88.5 30.8 84.6 4.9 79.7C-20.9 74.7 -41.8 68.7 -51.8 55.3C-61.8 41.8 -60.8 20.9 -65.9 -5.1C-71 -31.1 -82.2 -62.2 -72.2 -87.5C-62.2 -112.7 -31.1 -132 0.1 -132.1C31.3 -132.2 62.6 -113.1 87.8 -87.9Z" fill="#9f5bd7"></path></g></g></svg>