<svg width="90" height="90" viewBox="0 0 90 90" fill="none" xmlns="http://www.w3.org/2000/svg">
<path d="M45 5.625C23.0625 5.625 5.625 23.0625 5.625 45C5.625 66.9375 23.0625 84.375 45 84.375C66.9375 84.375 84.375 66.9375 84.375 45C84.375 23.0625 66.9375 5.625 45 5.625ZM45 78.75C26.4375 78.75 11.25 63.5625 11.25 45C11.25 26.4375 26.4375 11.25 45 11.25C63.5625 11.25 78.75 26.4375 78.75 45C78.75 63.5625 63.5625 78.75 45 78.75Z" fill="black"/>
<path d="M60.1875 64.6875L45 49.5L29.8125 64.6875L25.3125 60.1875L40.5 45L25.3125 29.8125L29.8125 25.3125L45 40.5L60.1875 25.3125L64.6875 29.8125L49.5 45L64.6875 60.1875L60.1875 64.6875Z" fill="black"/>
</svg>
