<svg width="74" height="73" viewBox="0 0 74 73" fill="none" xmlns="http://www.w3.org/2000/svg">
<path d="M15.4167 30.4167C12.011 30.4167 9.25 33.1403 9.25 36.5C9.25 39.8597 12.011 42.5834 15.4167 42.5834C18.8207 42.5791 21.579 39.858 21.5833 36.5C21.5833 33.1403 18.8224 30.4167 15.4167 30.4167ZM15.4167 39.5417C13.7137 39.5417 12.3333 38.18 12.3333 36.5C12.3333 34.8201 13.7137 33.4584 15.4167 33.4584C17.119 33.4595 18.4989 34.8206 18.5 36.5C18.5 38.18 17.1196 39.5417 15.4167 39.5417ZM37 30.4167C33.5943 30.4167 30.8333 33.1403 30.8333 36.5C30.8333 39.8597 33.5943 42.5834 37 42.5834C40.404 42.5791 43.1623 39.858 43.1667 36.5C43.1667 33.1403 40.4057 30.4167 37 30.4167ZM37 39.5417C35.2971 39.5417 33.9167 38.18 33.9167 36.5C33.9167 34.8201 35.2971 33.4584 37 33.4584C38.7024 33.4595 40.0822 34.8206 40.0833 36.5C40.0833 38.18 38.7029 39.5417 37 39.5417ZM58.5833 30.4167C55.1776 30.4167 52.4167 33.1403 52.4167 36.5C52.4167 39.8597 55.1776 42.5834 58.5833 42.5834C61.9873 42.5791 64.7457 39.858 64.75 36.5C64.75 33.1403 61.989 30.4167 58.5833 30.4167ZM58.5833 39.5417C56.8804 39.5417 55.5 38.18 55.5 36.5C55.5 34.8201 56.8804 33.4584 58.5833 33.4584C60.2857 33.4595 61.6655 34.8206 61.6667 36.5C61.6667 38.18 60.2863 39.5417 58.5833 39.5417Z" fill="black"/>
</svg>
