<svg width="839" height="835" viewBox="0 0 839 835" fill="none" xmlns="http://www.w3.org/2000/svg">
<path opacity="0.07" d="M108.745 565.301C108.745 403.078 240.738 271.57 403.56 271.57C566.382 271.57 698.375 403.078 698.375 565.301" fill="#FFBE55"/>
<path d="M522.007 469.317H505.54C505.4 469.317 505.266 469.372 505.167 469.471C505.068 469.569 505.013 469.703 505.013 469.842V482.291C505.013 484.031 505.706 485.699 506.941 486.929C508.175 488.159 509.85 488.85 511.595 488.85H515.952C517.698 488.85 519.372 488.159 520.607 486.929C521.841 485.699 522.535 484.031 522.535 482.291V469.842C522.535 469.703 522.479 469.569 522.38 469.471C522.281 469.372 522.147 469.317 522.007 469.317Z" fill="#FFBE55"/>
<path d="M520.033 486.704C523.749 484.613 530.124 478.443 529.062 474.102C528.778 472.942 528.067 472.068 527.003 471.576C524.541 470.436 521.015 471.813 520.622 471.974L521.795 474.411C522.646 474.067 524.725 473.503 525.703 473.958C525.901 474.05 526.119 474.209 526.236 474.687C526.855 477.217 521.866 482.548 518.523 484.429L520.033 486.704Z" fill="#FFBE55"/>
<path d="M401.22 479.513H316.054C315.365 479.513 314.704 479.241 314.217 478.756C313.73 478.27 313.456 477.612 313.456 476.926V428.262C313.456 427.576 313.73 426.918 314.217 426.433C314.704 425.948 315.364 425.675 316.053 425.675H401.22C401.908 425.675 402.569 425.948 403.056 426.433C403.543 426.918 403.816 427.576 403.816 428.262V476.926C403.816 477.265 403.749 477.602 403.619 477.916C403.489 478.23 403.298 478.515 403.056 478.755C402.815 478.996 402.529 479.186 402.214 479.316C401.899 479.446 401.562 479.513 401.22 479.513Z" fill="#FAFAFA"/>
<path d="M368.856 486.53C368.532 485.669 368.395 484.735 368.395 483.802V479.513H349.543V483.802C349.543 484.735 349.406 485.669 349.082 486.53C348.632 487.727 347.77 489.056 346.162 489.056H371.776C370.168 489.056 369.306 487.727 368.856 486.53Z" fill="#FAFAFA"/>
<path d="M542.849 494.823H272.246C271.81 494.823 271.392 494.65 271.084 494.343C270.776 494.036 270.603 493.619 270.603 493.185V490.666C270.603 489.761 271.338 489.029 272.246 489.029H542.849C543.757 489.029 544.493 489.761 544.493 490.666V493.185C544.493 493.4 544.45 493.613 544.368 493.812C544.285 494.011 544.164 494.191 544.011 494.343C543.859 494.495 543.677 494.616 543.478 494.698C543.279 494.78 543.065 494.823 542.849 494.823Z" fill="#D3D3D3"/>
<path d="M317.453 494.823H323.669V564.432H317.453V494.823ZM487.501 494.823H493.717V564.432H487.501V494.823Z" fill="#D3D3D3"/>
<path d="M401.22 470.95H316.054C315.365 470.95 314.704 470.677 314.217 470.192C313.73 469.707 313.456 469.049 313.456 468.362V419.699C313.456 419.013 313.73 418.354 314.217 417.869C314.704 417.384 315.365 417.111 316.054 417.111H401.22C401.561 417.111 401.899 417.178 402.214 417.308C402.529 417.438 402.815 417.629 403.056 417.869C403.298 418.109 403.489 418.394 403.619 418.708C403.75 419.022 403.817 419.358 403.817 419.698V468.362C403.817 468.701 403.75 469.038 403.62 469.352C403.489 469.666 403.298 469.951 403.057 470.192C402.816 470.432 402.53 470.623 402.214 470.753C401.899 470.883 401.562 470.95 401.22 470.95Z" fill="#2A94F4"/>
<path d="M316.957 420.107H400.443V467.404H316.957V420.107ZM496.077 479.513H410.911C410.222 479.513 409.562 479.241 409.075 478.756C408.587 478.27 408.314 477.612 408.314 476.926V428.262C408.314 427.576 408.587 426.918 409.075 426.432C409.562 425.947 410.222 425.674 410.911 425.674H496.078C496.767 425.674 497.427 425.947 497.914 426.432C498.401 426.918 498.675 427.576 498.675 428.262V476.926C498.675 477.612 498.401 478.27 497.914 478.756C497.427 479.241 496.766 479.513 496.077 479.513Z" fill="#FAFAFA"/>
<path d="M463.712 486.53C463.389 485.669 463.252 484.735 463.252 483.802V479.513H444.4V483.802C444.4 484.735 444.263 485.669 443.939 486.53C443.489 487.727 442.627 489.056 441.018 489.056H466.633C465.025 489.056 464.163 487.727 463.712 486.53Z" fill="#FAFAFA"/>
<path d="M496.077 470.95H410.911C410.222 470.95 409.562 470.677 409.075 470.192C408.587 469.707 408.314 469.049 408.314 468.362V419.699C408.314 419.013 408.587 418.354 409.075 417.869C409.562 417.384 410.222 417.111 410.911 417.111H496.078C496.767 417.111 497.427 417.384 497.914 417.869C498.402 418.354 498.675 419.013 498.675 419.699V468.362C498.675 469.049 498.401 469.707 497.914 470.192C497.427 470.677 496.766 470.95 496.077 470.95Z" fill="#2A94F4"/>
<path d="M411.814 420.107H495.3V467.404H411.814V420.107Z" fill="#FAFAFA"/>
<path d="M513.325 464.568C513.889 464.364 514.418 464.077 514.895 463.716C515.367 463.362 515.792 462.926 516.01 462.441C516.243 461.953 516.18 461.481 515.924 461.096C515.66 460.707 515.227 460.38 514.755 460.103C514.26 459.824 513.744 459.587 513.21 459.392C512.96 459.301 512.618 459.18 512.299 459.035C511.976 458.893 511.661 458.735 511.353 458.563C510.091 457.841 508.987 456.875 508.106 455.721C507.187 454.524 506.5 453.166 506.08 451.717C505.658 450.233 505.49 448.608 505.791 446.879C505.954 445.963 506.256 445.077 506.688 444.252C507.175 443.322 507.841 442.497 508.648 441.825C509.488 441.118 510.505 440.587 511.536 440.267C512.523 439.964 513.549 439.806 514.582 439.799L515.623 439.786C516.278 439.778 516.926 439.917 517.518 440.194C518.111 440.471 518.633 440.878 519.045 441.385C519.458 441.892 519.749 442.485 519.899 443.12C520.048 443.755 520.052 444.415 519.908 445.052C519.765 445.688 519.479 446.284 519.072 446.794C518.664 447.305 518.146 447.717 517.556 448C516.966 448.282 516.319 448.428 515.665 448.426C515.01 448.424 514.364 448.275 513.776 447.989C513.259 447.738 512.984 447.603 512.653 447.587C512.32 447.56 511.802 447.856 511.426 448.506C511.045 449.143 510.806 450.032 510.771 450.971C510.732 451.955 510.896 452.937 511.253 453.855C511.726 455.081 512.505 456.165 513.517 457.006C513.723 457.183 513.934 457.336 514.225 457.537C514.765 457.925 515.292 458.343 515.778 458.835C516.256 459.328 516.724 459.896 516.972 460.633C517.097 460.997 517.148 461.406 517.084 461.794C517.02 462.162 516.876 462.512 516.661 462.819C516.247 463.396 515.718 463.788 515.181 464.131C514.64 464.462 514.077 464.759 513.498 465.018C513.44 465.04 513.376 465.039 513.319 465.016C513.262 464.993 513.215 464.949 513.19 464.893C513.164 464.837 513.161 464.773 513.181 464.715C513.201 464.656 513.243 464.608 513.297 464.579C513.304 464.577 513.309 464.574 513.315 464.572L513.325 464.568Z" fill="white"/>
<path d="M477.128 461.438H431.278C429.984 461.438 428.742 460.926 427.827 460.014C426.912 459.102 426.397 457.865 426.397 456.576V430.538C426.397 429.9 426.523 429.267 426.769 428.677C427.014 428.088 427.373 427.551 427.827 427.1C428.28 426.648 428.818 426.29 429.41 426.046C430.002 425.802 430.637 425.676 431.278 425.676H477.128C478.422 425.676 479.664 426.188 480.579 427.1C481.494 428.012 482.008 429.249 482.008 430.538V456.576C482.008 457.865 481.494 459.102 480.579 460.014C479.663 460.925 478.422 461.438 477.128 461.438Z" fill="#FAFAFA"/>
<path d="M353.891 488.613C353.891 487.231 354.442 485.906 355.423 484.93C356.403 483.953 357.733 483.404 359.119 483.404C360.506 483.404 361.836 483.953 362.816 484.93C363.796 485.906 364.347 487.231 364.347 488.613" fill="#0B4870"/>
<path d="M313.307 444.884C313.307 444.884 316.778 443.23 318.303 442.364C319.827 441.501 323.746 440.313 324.063 440.031C324.379 439.748 335.683 439.054 336.369 438.465C337.054 437.877 337.72 439.846 334.791 440.486C331.862 441.125 327.785 442.688 327.562 443.83C327.339 444.971 330.571 445.241 330.899 446.18C331.226 447.119 330.807 446.91 330.344 447.11C329.88 447.312 326.499 445.446 325.012 445.977C323.525 446.507 321.252 445.773 320.112 446.161C318.973 446.549 313.432 448.407 313.432 448.407L313.307 444.884Z" fill="#FAB9AF"/>
<path d="M319.572 447.326L321.36 446.668C321.36 446.668 319.13 441.453 318.157 441.579C317.035 441.726 315.636 442.094 315.636 442.094L319.572 447.326Z" fill="#EAD8CF"/>
<path d="M319.981 448.228C319.752 448.058 316.179 441.229 316.179 441.229L308.546 442.26L312.671 450.35L319.981 448.228Z" fill="#CCE9FF"/>
<path d="M341.97 476.789C341.97 476.789 345.878 477.141 347.666 477.176C349.454 477.21 353.51 478.205 353.935 478.122C354.361 478.04 364.63 483.303 365.539 483.141C366.448 482.982 366.002 485.055 363.099 484.094C360.197 483.131 355.807 482.384 355.014 483.268C354.223 484.152 356.914 486.068 356.708 487.06C356.504 488.056 356.248 487.653 355.737 487.589C355.224 487.523 353.237 484.133 351.657 483.825C350.078 483.518 348.469 481.693 347.268 481.442C346.067 481.191 340.238 479.939 340.238 479.939L341.97 476.789ZM293.29 393.76C293.29 393.76 302.042 390.503 306.078 397.142C310.113 403.78 309.725 417.067 305.312 418.702C300.901 420.336 294.274 419.482 292.016 415.328C289.757 411.175 287.717 405.171 287.816 401.158C287.914 397.144 290.992 394.919 293.29 393.76Z" fill="#FAB9AF"/>
<path d="M304.363 419.005C304.363 419.005 303.656 425.264 304.258 426.426C304.861 427.584 293.333 426.426 293.333 426.426C293.333 426.426 292.293 417.403 290.455 412.07C288.617 406.742 304.363 419.005 304.363 419.005Z" fill="#FAB9AF"/>
<path d="M290.455 412.07C290.455 412.07 290.879 418.788 294.243 418.262C297.607 417.738 302.111 407.915 303.516 407.427C304.92 406.936 304.934 406.114 304.934 406.114L305.813 407.394L307.304 407.489C307.304 407.489 305.944 403.499 307.996 401.872C310.05 400.246 305.866 388.959 295.078 392.717C295.078 392.717 286.791 394.993 287.092 399.687C287.394 404.384 288.601 409.734 290.455 412.07Z" fill="#0B4870"/>
<path d="M305.626 427.822C305.626 427.822 305.588 425.608 304.58 425.393C303.572 425.182 293.451 424.212 292.214 424.697V427.28C292.214 427.28 294.599 428.741 305.626 427.822Z" fill="#E2D2CA"/>
<path d="M304.711 404.407C304.522 403.619 302.512 401.369 301.743 403.78C300.973 406.188 302.906 409.431 303.984 409.152C305.062 408.876 305.19 406.405 304.711 404.407Z" fill="#EEA886"/>
<path d="M319.403 512.392C319.403 512.392 320.779 522.182 320.199 523.918C319.619 525.653 314.39 533.757 314.39 533.757L308.581 558.644H301.61L301.029 529.705L298.124 557.487L292.315 556.908L285.344 529.705C285.344 529.705 273.051 529.046 275.421 510.276C277.791 491.506 319.403 512.392 319.403 512.392Z" fill="#0B4870"/>
<path d="M275.37 510.572C275.37 510.572 280.736 512.147 289.89 513.152C299.043 514.157 321.912 512.791 322.056 511.714C322.201 510.635 317.137 471.594 317.426 469.584C317.714 467.574 317.868 460.41 317.868 460.41C317.981 462.373 319.988 470.391 322.411 474.761C323.286 476.34 325.848 479.893 327.638 480.163C337.626 481.667 347.991 482.419 348.664 482.246C348.099 482.001 349.291 476.087 348.664 475.879C348.116 475.696 341.112 474.721 335.884 473.564C333.963 473.139 329.349 462.255 329.349 462.255C328.484 460.316 325.334 448.104 324.355 443.877C322.147 434.345 322.487 433.949 322.487 433.949C315.791 431.931 305.627 427.822 305.627 427.822L292.216 427.28C292.216 427.28 279.907 429.979 275.06 432.159C274.6 432.366 274.598 443.1 273.336 445.914L277.355 454.361C277.355 454.361 279.676 471.095 280.158 478.537C280.379 481.953 275.37 510.572 275.37 510.572Z" fill="#2A94F4"/>
<path d="M272.778 459.85C273.128 460.976 274.719 461.927 275.751 462.343C276.431 462.618 277.177 462.692 277.899 462.558L278.424 462.462V462.461L287.615 460.762C287.615 460.762 289.626 437.687 275.059 432.159C274.674 432.285 269.561 449.518 272.778 459.85Z" fill="#2A94F4"/>
<path d="M290.798 394.543C290.798 394.543 279.785 395.655 290.602 412.314L290.798 394.543ZM307.418 560.96C307.418 560.96 309.742 560.96 310.323 562.117C310.904 563.275 310.904 564.432 310.904 564.432H301.029L301.61 560.959L307.418 560.96Z" fill="#0B4870"/>
<path d="M381.203 444.393C380.726 444.698 380.171 444.782 379.64 444.927C377.789 445.429 375.936 445.923 374.081 446.408C373.902 446.455 373.909 446.495 374.007 446.625C376.003 449.297 377.995 451.972 379.988 454.647C380.051 454.73 380.11 454.815 380.164 454.904C380.356 455.232 380.308 455.436 379.986 455.634C379.76 455.769 379.521 455.881 379.273 455.97C376.115 457.149 372.939 458.279 369.764 459.409C367.658 460.159 365.547 460.897 363.436 461.634C363.031 461.776 362.616 461.889 362.192 461.964C361.723 462.046 361.314 461.929 360.971 461.593C360.61 461.241 360.355 460.812 360.102 460.383C358.374 457.462 356.752 454.48 355.09 451.522C354.91 451.204 354.911 451.204 354.558 451.295C351.194 452.166 347.83 453.039 344.465 453.909C344.065 454.013 343.659 454.049 343.251 453.961C342.61 453.822 342.148 453.447 341.877 452.86C338.465 445.482 335.057 438.102 331.646 430.723C331.483 430.367 331.346 429.999 331.235 429.624V429.25C331.336 428.817 331.65 428.655 332.056 428.624C333.202 428.536 334.349 428.459 335.494 428.37C337.392 428.221 339.289 428.07 341.187 427.913C341.354 427.899 341.529 427.923 341.687 427.841H342.895C343.416 427.991 343.661 428.424 343.911 428.842C345.337 431.219 346.758 433.599 348.18 435.978C350.705 440.203 353.232 444.426 355.752 448.653C355.84 448.802 355.919 448.825 356.077 448.787C359.335 448.005 362.594 447.227 365.853 446.449L370.823 445.265C370.883 445.251 370.941 445.231 371.001 445.214C370.985 445.118 370.923 445.059 370.876 444.992C369.29 442.734 367.703 440.476 366.116 438.218C365.704 437.633 365.817 437.319 366.53 437.186C367.313 437.04 368.103 436.933 368.889 436.804C370.352 436.564 371.814 436.32 373.277 436.08C373.509 436.042 373.743 436.01 373.976 435.978C374.355 435.926 374.667 436.069 374.947 436.31C375.413 436.711 375.756 437.218 376.139 437.691C377.746 439.675 379.325 441.682 380.958 443.647C381.031 443.736 381.096 443.836 381.201 443.895C381.203 444.062 381.203 444.228 381.203 444.393ZM344.129 451.68C344.213 451.663 344.302 451.648 344.389 451.628C345.157 451.444 345.923 451.257 346.691 451.072C348.939 450.532 351.188 449.992 353.436 449.451C353.758 449.374 353.802 449.259 353.628 448.986C353.587 448.922 353.548 448.857 353.51 448.792C349.772 442.361 346.035 435.931 342.304 429.497C342.19 429.3 342.059 429.246 341.851 429.267C341.423 429.311 340.994 429.338 340.566 429.376L337.499 429.641C336.297 429.746 335.096 429.854 333.894 429.955C333.584 429.982 333.528 430.051 333.632 430.341C333.655 430.406 333.687 430.468 333.718 430.529C333.888 430.868 334.062 431.206 334.229 431.548C337.437 438.122 340.645 444.696 343.852 451.271C343.9 451.369 343.966 451.461 343.974 451.577C343.98 451.67 344.053 451.675 344.129 451.68ZM362.372 459.409C362.423 459.395 362.497 459.379 362.569 459.355C366.265 458.101 369.961 456.846 373.655 455.59C374.9 455.167 376.143 454.738 377.386 454.311C377.607 454.235 377.628 454.18 377.516 453.981C377.464 453.891 377.407 453.805 377.345 453.721C376.129 452.057 374.912 450.394 373.697 448.727C373.274 448.146 372.861 447.557 372.443 446.972C372.325 446.807 372.204 446.68 371.963 446.746C370.747 447.074 369.529 447.393 368.31 447.711C364.586 448.681 360.862 449.65 357.137 450.615C356.984 450.655 356.94 450.688 357.036 450.85C358.516 453.362 359.987 455.881 361.464 458.396C361.627 458.676 361.781 458.963 361.998 459.209C362.091 459.317 362.198 459.4 362.372 459.409ZM374.043 437.342C373.925 437.366 373.79 437.396 373.654 437.42L368.502 438.346C367.956 438.444 367.939 438.489 368.265 438.931C369.685 440.857 371.106 442.781 372.524 444.709C372.604 444.818 372.67 444.854 372.813 444.818C374.295 444.441 375.779 444.072 377.264 443.705C377.707 443.595 378.155 443.502 378.598 443.392C378.913 443.314 378.937 443.226 378.741 442.979C378.046 442.109 377.353 441.236 376.662 440.364C375.935 439.447 375.211 438.53 374.486 437.613C374.377 437.475 374.254 437.356 374.043 437.342Z" fill="#FFBE55"/>
<path d="M702.441 582.954H97.127C91.9937 582.954 87.832 578.807 87.832 573.693C87.832 568.579 91.9937 564.432 97.127 564.432H702.442C707.575 564.432 711.737 568.579 711.737 573.693C711.736 578.807 707.574 582.954 702.441 582.954Z" fill="#D3D3D3"/>
<path d="M299.866 484.561H348.082V489.191H299.866V484.561Z" fill="#0B4870"/>
<path d="M304.614 515.752H289.986C279.774 515.752 271.497 506.855 271.497 495.88L276.121 456.067C277.71 445.455 287.568 438.64 297.569 438.64C307.681 438.64 317.598 445.623 319.062 456.375L323.103 495.879C323.103 506.855 314.825 515.752 304.614 515.752Z" fill="#FFBE55"/>
<path d="M299.924 564.433H294.86C294.306 564.433 293.774 564.213 293.382 563.823C292.99 563.432 292.77 562.902 292.77 562.35V473.792C292.77 473.24 292.99 472.71 293.382 472.319C293.774 471.928 294.306 471.709 294.86 471.708H299.924C300.199 471.708 300.471 471.762 300.725 471.867C300.978 471.972 301.209 472.125 301.403 472.319C301.597 472.512 301.751 472.742 301.856 472.995C301.961 473.248 302.015 473.519 302.015 473.792V562.349C302.015 562.902 301.795 563.432 301.403 563.822C301.011 564.213 300.479 564.433 299.924 564.433Z" fill="#2A94F4"/>
<path d="M301.404 476.637H292.95C291.875 476.637 290.845 476.211 290.085 475.454C289.325 474.697 288.898 473.671 288.898 472.6V470.818C288.898 469.747 289.325 468.721 290.085 467.964C290.845 467.207 291.875 466.781 292.95 466.781H301.404C302.479 466.781 303.509 467.207 304.269 467.964C305.029 468.721 305.456 469.747 305.456 470.818V472.6C305.456 473.671 305.029 474.697 304.269 475.454C303.509 476.211 302.479 476.637 301.404 476.637Z" fill="#2A94F4"/>
<path d="M318.149 535.494H276.936C276.515 535.494 276.097 535.411 275.707 535.25C275.318 535.09 274.964 534.854 274.666 534.557C274.368 534.26 274.131 533.907 273.97 533.519C273.808 533.131 273.725 532.715 273.725 532.295V526.539C273.725 525.691 274.064 524.877 274.666 524.277C275.268 523.677 276.085 523.34 276.936 523.34H318.149C319 523.34 319.817 523.677 320.419 524.277C321.022 524.877 321.36 525.691 321.36 526.539V532.295C321.36 532.715 321.277 533.131 321.116 533.519C320.954 533.907 320.718 534.26 320.42 534.557C320.121 534.854 319.767 535.09 319.378 535.251C318.988 535.411 318.571 535.494 318.149 535.494Z" fill="#FFBE55"/>
<path opacity="0.29" d="M405.89 332.666C409.213 332.666 411.907 329.982 411.907 326.671C411.907 323.36 409.213 320.676 405.89 320.676C402.566 320.676 399.873 323.36 399.873 326.671C399.873 329.982 402.566 332.666 405.89 332.666Z" fill="#FFBE55"/>
<path d="M405.89 304.547C393.626 304.547 383.684 314.452 383.684 326.671H428.096C428.096 314.452 418.154 304.547 405.89 304.547Z" fill="#FFBE55"/>
<path d="M404.95 271.363H406.829V304.547H404.95V271.363Z" fill="#0B4870"/>
<path d="M468.332 432.023C467.764 432.84 467.305 433.723 466.806 434.581C462.441 442.072 458.085 449.568 453.726 457.063C453.518 457.421 453.519 457.421 453.311 457.063C448.513 448.813 443.716 440.565 438.915 432.317C438.856 432.214 438.82 432.089 438.705 432.023V431.949L444.638 431.963C444.883 432.389 445.126 432.815 445.372 433.24L449.524 440.375C450.803 442.573 452.082 444.771 453.356 446.972C453.477 447.181 453.559 447.181 453.679 446.972C454.13 446.183 454.591 445.399 455.048 444.613C456.543 442.043 458.038 439.474 459.532 436.904C460.489 435.258 461.442 433.609 462.397 431.962L468.33 431.949C468.332 431.974 468.332 431.998 468.332 432.023Z" fill="#CCE9FF"/>
<path d="M444.638 431.962C446.39 431.958 448.141 431.958 449.892 431.943C450.117 431.941 450.183 432.07 450.271 432.221C451.276 433.95 452.282 435.678 453.289 437.405C453.355 437.518 453.426 437.627 453.498 437.743C453.645 437.652 453.682 437.517 453.748 437.405C454.75 435.688 455.754 433.973 456.745 432.25C456.869 432.034 456.994 431.939 457.257 431.942C458.971 431.96 460.685 431.958 462.4 431.962C461.444 433.61 460.491 435.258 459.535 436.904C458.041 439.475 456.545 442.044 455.05 444.614C454.593 445.399 454.133 446.184 453.681 446.972C453.561 447.182 453.479 447.182 453.358 446.972C452.083 444.772 450.805 442.574 449.526 440.376C448.143 437.997 446.758 435.62 445.375 433.241C445.127 432.815 444.883 432.388 444.638 431.962Z" fill="#0B4870"/>
<path d="M307.172 558.645L306.837 560.96H302.19V558.645H307.172Z" fill="#FAB9AF"/>
<path d="M604.903 560.477C604.903 561.482 604.502 562.447 603.788 563.158C603.074 563.869 602.106 564.268 601.097 564.268H586.418C585.408 564.268 584.44 563.869 583.727 563.158C583.013 562.447 582.612 561.482 582.612 560.477V526.35C582.612 525.344 583.013 524.38 583.727 523.669C584.44 522.958 585.408 522.558 586.418 522.558H601.097C602.106 522.558 603.074 522.958 603.788 523.669C604.502 524.38 604.903 525.344 604.903 526.35V560.477Z" fill="#FFBE55"/>
<path d="M595.518 483.275C595.518 483.275 583.5 507.613 601.206 511.758C618.912 515.902 619.423 497.544 617.609 489.978C615.794 482.412 643.891 462.072 620.718 444.077C597.545 426.083 579.485 473.992 595.518 483.275Z" fill="#CCE9FF"/>
<path d="M573.141 496.487C573.141 496.487 572.575 512.503 583.126 510.468C593.676 508.433 589.492 498.415 586.677 494.774C583.861 491.133 594.065 473.396 577.203 469.284C560.342 465.172 562.244 495.348 573.141 496.487Z" fill="#CCE9FF"/>
<path d="M574.94 481.389L587.989 522.558M582.552 489.772L579.788 496.685L573.49 493.228M609.67 458.096L598.476 522.558M616.237 467.847L606.964 473.682L601.014 465.68M613.7 481.365L604.426 487.2L598.476 479.198" stroke="#4D4D4D" stroke-miterlimit="10"/>
<path d="M222.079 560.477C222.079 561.482 221.678 562.447 220.965 563.158C220.251 563.869 219.283 564.268 218.274 564.268H203.594C202.585 564.268 201.617 563.869 200.903 563.158C200.19 562.447 199.789 561.482 199.789 560.477V526.35C199.789 525.344 200.19 524.38 200.903 523.669C201.617 522.958 202.585 522.558 203.594 522.558H218.274C219.283 522.558 220.251 522.958 220.965 523.669C221.678 524.38 222.079 525.344 222.079 526.35V560.477Z" fill="#FFBE55"/>
<path d="M212.694 483.275C212.694 483.275 200.676 507.613 218.382 511.758C236.088 515.902 236.599 497.544 234.785 489.978C232.97 482.412 261.067 462.072 237.894 444.077C214.721 426.083 196.661 473.992 212.694 483.275Z" fill="#CCE9FF"/>
<path d="M190.317 496.487C190.317 496.487 189.751 512.503 200.302 510.468C210.852 508.433 206.668 498.415 203.853 494.774C201.036 491.133 211.24 473.396 194.379 469.284C177.518 465.172 179.421 495.348 190.317 496.487Z" fill="#CCE9FF"/>
<path d="M192.116 481.389L205.165 522.558M199.728 489.772L196.965 496.685L190.667 493.228M226.846 458.096L215.652 522.558M233.413 467.847L224.14 473.682L218.19 465.68M230.876 481.365L221.603 487.2L215.652 479.198" stroke="#4D4D4D" stroke-miterlimit="10"/>
</svg>
